<mxfile host="app.diagrams.net" modified="2023-12-12T07:10:27.979Z" agent="Mozilla/5.0 (Windows NT 10.0; Win64; x64) AppleWebKit/537.36 (KHTML, like Gecko) Chrome/119.0.0.0 Safari/537.36 Edg/119.0.0.0" etag="qOSOXHO2rQta1frjVmSv" version="22.1.7" type="google">
  <diagram name="第 1 页" id="vgAJ1qgmqjQl8_x8Z_nX">
    <mxGraphModel grid="1" page="1" gridSize="10" guides="1" tooltips="1" connect="1" arrows="1" fold="1" pageScale="1" pageWidth="827" pageHeight="1169" math="0" shadow="0">
      <root>
        <mxCell id="0" />
        <mxCell id="1" parent="0" />
        <mxCell id="YnII2_OyhwKpjkGOhCy6-1" value="&lt;font style=&quot;font-size: 14px;&quot;&gt;員工註冊&lt;/font&gt;" style="rounded=1;whiteSpace=wrap;html=1;" vertex="1" parent="1">
          <mxGeometry x="350" y="330" width="140" height="40" as="geometry" />
        </mxCell>
        <mxCell id="YnII2_OyhwKpjkGOhCy6-2" value="&lt;font style=&quot;font-size: 14px;&quot;&gt;員工帳號&lt;/font&gt;" style="ellipse;whiteSpace=wrap;html=1;" vertex="1" parent="1">
          <mxGeometry x="170" y="245" width="120" height="50" as="geometry" />
        </mxCell>
        <mxCell id="YnII2_OyhwKpjkGOhCy6-5" value="&lt;font style=&quot;font-size: 14px;&quot;&gt;員工姓名&lt;/font&gt;" style="ellipse;whiteSpace=wrap;html=1;" vertex="1" parent="1">
          <mxGeometry x="210" y="180" width="120" height="50" as="geometry" />
        </mxCell>
        <mxCell id="YnII2_OyhwKpjkGOhCy6-6" value="&lt;font style=&quot;font-size: 14px;&quot;&gt;密碼&lt;/font&gt;" style="ellipse;whiteSpace=wrap;html=1;" vertex="1" parent="1">
          <mxGeometry x="300" y="130" width="104" height="50" as="geometry" />
        </mxCell>
        <mxCell id="YnII2_OyhwKpjkGOhCy6-7" value="&lt;font style=&quot;font-size: 14px;&quot;&gt;確認密碼&lt;/font&gt;" style="ellipse;whiteSpace=wrap;html=1;" vertex="1" parent="1">
          <mxGeometry x="420" y="130" width="104" height="50" as="geometry" />
        </mxCell>
        <mxCell id="YnII2_OyhwKpjkGOhCy6-8" value="&lt;font style=&quot;font-size: 14px;&quot;&gt;手機號碼&lt;/font&gt;" style="ellipse;whiteSpace=wrap;html=1;" vertex="1" parent="1">
          <mxGeometry x="524" y="170" width="110" height="60" as="geometry" />
        </mxCell>
        <mxCell id="YnII2_OyhwKpjkGOhCy6-9" value="&lt;font style=&quot;font-size: 14px;&quot;&gt;郵箱&lt;/font&gt;" style="ellipse;whiteSpace=wrap;html=1;" vertex="1" parent="1">
          <mxGeometry x="560" y="240" width="120" height="60" as="geometry" />
        </mxCell>
        <mxCell id="YnII2_OyhwKpjkGOhCy6-11" value="" style="endArrow=none;html=1;rounded=0;entryX=0.993;entryY=0.66;entryDx=0;entryDy=0;entryPerimeter=0;exitX=0.5;exitY=0;exitDx=0;exitDy=0;" edge="1" parent="1" source="YnII2_OyhwKpjkGOhCy6-1" target="YnII2_OyhwKpjkGOhCy6-2">
          <mxGeometry width="50" height="50" relative="1" as="geometry">
            <mxPoint x="390" y="310" as="sourcePoint" />
            <mxPoint x="440" y="260" as="targetPoint" />
          </mxGeometry>
        </mxCell>
        <mxCell id="YnII2_OyhwKpjkGOhCy6-12" value="" style="endArrow=none;html=1;rounded=0;entryX=0.993;entryY=0.66;entryDx=0;entryDy=0;entryPerimeter=0;exitX=0.5;exitY=0;exitDx=0;exitDy=0;" edge="1" parent="1" source="YnII2_OyhwKpjkGOhCy6-1">
          <mxGeometry width="50" height="50" relative="1" as="geometry">
            <mxPoint x="410" y="330" as="sourcePoint" />
            <mxPoint x="320" y="220" as="targetPoint" />
          </mxGeometry>
        </mxCell>
        <mxCell id="YnII2_OyhwKpjkGOhCy6-13" value="" style="endArrow=none;html=1;rounded=0;entryX=0.993;entryY=0.66;entryDx=0;entryDy=0;entryPerimeter=0;exitX=0.5;exitY=0;exitDx=0;exitDy=0;" edge="1" parent="1" source="YnII2_OyhwKpjkGOhCy6-1">
          <mxGeometry width="50" height="50" relative="1" as="geometry">
            <mxPoint x="492" y="230" as="sourcePoint" />
            <mxPoint x="370" y="180" as="targetPoint" />
          </mxGeometry>
        </mxCell>
        <mxCell id="YnII2_OyhwKpjkGOhCy6-14" value="" style="endArrow=none;html=1;rounded=0;entryX=0.993;entryY=0.66;entryDx=0;entryDy=0;entryPerimeter=0;" edge="1" parent="1">
          <mxGeometry width="50" height="50" relative="1" as="geometry">
            <mxPoint x="420" y="330" as="sourcePoint" />
            <mxPoint x="470" y="180" as="targetPoint" />
          </mxGeometry>
        </mxCell>
        <mxCell id="YnII2_OyhwKpjkGOhCy6-15" value="" style="endArrow=none;html=1;rounded=0;entryX=0;entryY=1;entryDx=0;entryDy=0;exitX=0.5;exitY=0;exitDx=0;exitDy=0;" edge="1" parent="1" source="YnII2_OyhwKpjkGOhCy6-1" target="YnII2_OyhwKpjkGOhCy6-8">
          <mxGeometry width="50" height="50" relative="1" as="geometry">
            <mxPoint x="451" y="368" as="sourcePoint" />
            <mxPoint x="329" y="318" as="targetPoint" />
          </mxGeometry>
        </mxCell>
        <mxCell id="YnII2_OyhwKpjkGOhCy6-16" value="" style="endArrow=none;html=1;rounded=0;entryX=0.083;entryY=0.78;entryDx=0;entryDy=0;entryPerimeter=0;" edge="1" parent="1" target="YnII2_OyhwKpjkGOhCy6-9">
          <mxGeometry width="50" height="50" relative="1" as="geometry">
            <mxPoint x="420" y="330" as="sourcePoint" />
            <mxPoint x="570" y="280" as="targetPoint" />
          </mxGeometry>
        </mxCell>
      </root>
    </mxGraphModel>
  </diagram>
</mxfile>
